<svg width="96" height="96" xmlns="http://www.w3.org/2000/svg" xmlns:xlink="http://www.w3.org/1999/xlink" xml:space="preserve" overflow="hidden"><g transform="translate(-353 -106)"><path d="M401 131C402.657 131 404 132.343 404 134L404 166.76 412.88 157.88C414.092 156.751 415.991 156.818 417.12 158.03 418.194 159.182 418.194 160.968 417.12 162.12L403.12 176.12C401.949 177.29 400.051 177.29 398.88 176.12L384.88 162.12C383.75 160.908 383.818 159.009 385.03 157.88 386.182 156.806 387.968 156.806 389.12 157.88L398 166.76 398 134C398 132.343 399.343 131 401 131Z" fill="#008B99"/><path d="M401 192C421.987 192 439 174.987 439 154 439 133.013 421.987 116 401 116 380.013 116 363 133.013 363 154 363 174.987 380.013 192 401 192ZM401 186C383.327 186 369 171.673 369 154 369 136.327 383.327 122 401 122 418.673 122 433 136.327 433 154 433 171.673 418.673 186 401 186Z" fill="#008B99"/></g></svg>