<?xml version="1.0" encoding="UTF-8"?>
<svg width="157px" height="64px" viewBox="0 0 157 64" version="1.1" xmlns="http://www.w3.org/2000/svg" xmlns:xlink="http://www.w3.org/1999/xlink">
    <!-- Generator: sketchtool 52.5 (67469) - http://www.bohemiancoding.com/sketch -->
    <title>FB8F2BAA-AE2F-4682-AE98-05454DB3DE3B</title>
    <desc>Created with sketchtool.</desc>
    <g id="Icônes" stroke="none" stroke-width="1" fill="none" fill-rule="evenodd">
        <g id="GUI" transform="translate(-858.000000, -1592.000000)">
            <g id="Logo-Céreq" transform="translate(858.000000, 1592.000000)">
                <path d="M71.4938502,5.38730005 C72.4183377,4.46243335 73.2846813,4 74.0938502,4 C74.4775997,4 74.8923593,4.15511391 75.3361908,4.46243335 C75.7780842,4.77169171 76,5.23412506 76,5.8497334 C76,6.54386815 75.7693627,7.09258362 75.3071189,7.49684925 C74.8448751,7.90208434 74.3816623,8.25884634 73.9203876,8.56616578 L65.4265375,14 L63,14 L71.4938502,5.38730005 Z M66.5168038,21 C65.0158791,21 63.748613,21.3230417 62.7139851,21.9662664 C61.6813979,22.6104441 60.8294114,23.4147132 60.1600663,24.3809796 C59.4907213,25.347246 58.9825904,26.4078521 58.6387348,27.5627978 C58.2938588,28.7186964 58.0806071,29.8069373 58,30.8294263 C59.2570627,30.8675434 60.5651425,30.9056604 61.9242395,30.9428245 C63.2823162,30.9809415 64.6108029,31 65.9086793,31 C67.2473694,31 68.6054461,30.9809415 69.9849499,30.9428245 C71.3634335,30.9056604 72.7021236,30.8675434 74,30.8294263 C74,29.8069373 73.9081691,28.7272727 73.7255277,27.5913856 C73.5439066,26.4545455 73.1786238,25.3948923 72.6306996,24.4095674 C72.0837957,23.4251953 71.3236401,22.6104441 70.3502328,21.9662664 C69.3768255,21.3230417 68.0993559,21 66.5168038,21 Z M53,34.4074476 C53,29.603429 54.1622235,25.8350896 56.4886709,23.1004642 C58.8141181,20.3668214 62.2027698,19 66.6556261,19 C68.7620312,19 70.581381,19.321316 72.1126755,19.9659133 C73.6419696,20.6105106 74.9252164,21.4703012 75.9594153,22.5433199 C76.992614,23.6183038 77.7577611,24.8780199 78.2548567,26.3224681 C78.7519523,27.7678989 79,29.3106089 79,30.9515807 C79,31.3416799 78.9899981,31.7229357 78.9699942,32.0933826 C78.9499904,32.4657947 78.9199846,32.8450852 78.8809771,33.2361671 C76.7335641,33.197845 74.606155,33.1585403 72.5007501,33.1192356 C70.3923447,33.0809135 68.2659358,33.0602785 66.119523,33.0602785 C64.8072706,33.0602785 63.5050202,33.0809135 62.2137719,33.1192356 C60.9215234,33.1585403 59.6192729,33.197845 58.3070206,33.2361671 C58.2670129,33.4317081 58.2480092,33.7245282 58.2480092,34.1146275 L58.2480092,34.8771389 C58.2480092,36.4001965 58.4750529,37.825975 58.933141,39.1525091 C59.3892287,40.481991 60.0553568,41.6237929 60.9305251,42.5808627 C61.8046932,43.5379324 62.8788998,44.3004439 64.1511445,44.8654491 C65.4233891,45.4324196 66.8936719,45.7154135 68.5639931,45.7154135 C69.359146,45.7154135 70.1743028,45.6083082 71.0084632,45.3931149 C71.8436238,45.1789042 72.6587805,44.8851015 73.4539334,44.5136719 C74.2490864,44.143225 74.9942297,43.7039948 75.6903635,43.1959814 C76.3854972,42.6889506 76.992614,42.1406499 77.5087132,41.5559923 L77.8067705,41.7308982 L77.4497019,44.6021075 C76.2574726,45.5385423 74.7751875,46.3403585 73.0078477,47.0046081 C71.2375072,47.6668926 69.3991537,48 67.4907867,48 C65.3433737,48 63.3849971,47.6777014 61.616657,47.0331041 C59.8473168,46.3894894 58.3160223,45.4510894 57.024774,44.2208518 C55.7325255,42.9915969 54.7383343,41.5363399 54.0432006,39.8560634 C53.3470667,38.1777522 53,36.3608918 53,34.4074476 Z" id="Fill-1" fill="#808184"></path>
                <path d="M96.070265,23.8438635 C95.5127002,23.6442923 94.9464384,23.5450081 94.3705135,23.5450081 C93.4486472,23.5450081 92.6224462,23.7636338 91.8938432,24.2018882 C91.1633076,24.6411453 90.5477637,25.2288273 90.0501104,25.965937 C89.5495583,26.7050524 89.1649641,27.5805581 88.8972943,28.5974686 C88.6276919,29.6133762 88.4933738,30.7004876 88.4933738,31.8557942 L88.4933738,38.4326175 C88.4933738,41.1042639 88.503037,43.1481136 88.5223633,44.5631635 C88.5416897,45.9782135 88.6083655,47.1234914 88.7243236,48 C87.9561016,47.9197704 87.1878796,47.8806584 86.4196576,47.8806584 C85.5750966,47.8806584 84.768222,47.9197704 84,48 C84.1149917,46.6461251 84.1816676,44.8018467 84.2019602,42.4701733 C84.2203203,40.1384998 84.2299834,37.2773109 84.2299834,33.8886122 L84.2299834,31.9751357 C84.2299834,30.4206868 84.2203203,28.6275547 84.2019602,26.5947367 C84.1816676,24.5609157 84.1149917,22.2292423 84,19.5987136 C84.4222805,19.6789432 84.8252347,19.7481412 85.2098288,19.8073106 C85.5934567,19.8674828 85.9964108,19.896566 86.4196576,19.896566 C86.7655991,19.896566 87.1299006,19.8674828 87.5144948,19.8073106 C87.8981226,19.7481412 88.3010768,19.6789432 88.7243236,19.5987136 C88.5697129,21.0328181 88.4837107,22.170073 88.4653506,23.0064668 C88.445058,23.8438635 88.4363611,24.6411453 88.4363611,25.3983124 L88.5513528,25.4574818 C90.8173661,21.1531625 93.3520155,19 96.1572336,19 C96.5022087,19 96.7998343,19.0210603 97.0501104,19.0601722 C97.2984539,19.100287 97.6163722,19.2005741 98,19.3590276 C97.8077029,19.8373967 97.6927112,20.5654805 97.6550248,21.5412733 C97.6163722,22.5190718 97.5970458,23.4056092 97.5970458,24.2018882 L97.1931253,24.5017464 C97.0008283,24.2620604 96.6258973,24.0434347 96.070265,23.8438635" id="Fill-3" fill="#808184"></path>
                <path d="M114.516804,21 C113.015879,21 111.748613,21.3542977 110.713985,22.0628931 C109.681398,22.7714885 108.829411,23.6561845 108.160066,24.7190776 C107.490721,25.7819706 106.98259,26.9475891 106.638735,28.2190776 C106.293859,29.490566 106.080607,30.687631 106,31.812369 C107.257063,31.8542977 108.565143,31.8962264 109.92424,31.9371069 C111.282316,31.9790356 112.610803,32 113.908679,32 C115.247369,32 116.605446,31.9790356 117.98393,31.9371069 C119.363433,31.8962264 120.702124,31.8542977 122,31.812369 C122,30.687631 121.908169,29.5 121.725528,28.2505241 C121.543907,27 121.178624,25.8343816 120.6307,24.7505241 C120.083796,23.6666667 119.32364,22.7714885 118.350233,22.0628931 C117.376825,21.3542977 116.099356,21 114.516804,21 M101,34.9392153 C101,29.9697093 102.162224,26.0705428 104.488671,23.2427323 C106.814118,20.4149217 110.20277,19 114.655626,19 C116.762031,19 118.581381,19.3334011 120.112676,20.0002033 C121.64197,20.6670055 122.924216,21.5553974 123.959415,22.6663956 C124.992614,23.7784102 125.756761,25.0815206 126.254857,26.5757268 C126.751952,28.0709494 127,29.6668022 127,31.3632852 C127,31.767839 126.989998,32.1622281 126.969994,32.5444196 C126.94999,32.9296605 126.919985,33.3230331 126.880977,33.7275869 C124.733564,33.6879447 122.606155,33.6462696 120.50075,33.6056109 C118.392345,33.5659687 116.265936,33.5456394 114.119523,33.5456394 C112.807271,33.5456394 111.50402,33.5659687 110.212772,33.6056109 C108.920523,33.6462696 107.619273,33.6879447 106.307021,33.7275869 C106.267013,33.9298638 106.248009,34.2327709 106.248009,34.6363082 L106.248009,35.4240699 C106.248009,36.9995934 106.475053,38.4744867 106.933141,39.8477333 C107.389229,41.2230128 108.055357,42.4041472 108.930525,43.3931693 C109.804693,44.3842244 110.8779,45.1719862 112.151144,45.757471 C113.422389,46.3439724 114.893672,46.6367148 116.563993,46.6367148 C117.359146,46.6367148 118.173303,46.5249034 119.008463,46.3033137 C119.843624,46.0817239 120.658781,45.7778004 121.453933,45.3935759 C122.249086,45.010368 122.99423,44.5560073 123.690364,44.0294775 C124.385497,43.5059972 124.992614,42.9388087 125.508713,42.3329945 L125.806771,42.5149421 L125.449702,45.4850579 C124.256472,46.4537508 122.775188,47.2831876 121.006847,47.9693027 C119.237507,48.6554178 117.399154,49 115.490787,49 C113.343374,49 111.384997,48.6665989 109.616657,47.9997967 C107.847317,47.3329945 106.316022,46.3632852 105.024774,45.0906688 C103.732525,43.8180524 102.738334,42.3136816 102.043201,40.5755235 C101.347067,38.8393983 101,36.9599512 101,34.9392153" id="Fill-5" fill="#808184"></path>
                <path d="M152,33.7544632 C152,32.2423745 151.841047,30.7813226 151.525129,29.3693059 C151.20921,27.9572892 150.705528,26.7043872 150.015077,25.6095989 C149.324626,24.5168121 148.445418,23.6411817 147.379441,22.984709 C146.312471,22.3282363 145.010051,22 143.470196,22 C142.52244,22 141.545874,22.1891362 140.538511,22.5664078 C139.531148,22.9456809 138.612202,23.6211672 137.783661,24.595869 C136.954126,25.5705708 136.28255,26.8925226 135.769928,28.5637259 C135.256311,30.2339284 135,32.3814747 135,35.0073653 C135,36.7175967 135.167894,38.2987351 135.503682,39.7507806 C135.837482,41.202826 136.332223,42.4657353 136.983929,43.5395084 C137.635636,44.6142823 138.465171,45.4588904 139.472534,46.0753342 C140.478904,46.6927788 141.633298,47 142.936711,47 C144.437821,47 145.750175,46.6217276 146.87576,45.8671844 C148.001344,45.1116404 148.9491,44.106917 149.719028,42.8540149 C150.488955,41.6001121 151.061185,40.1790889 151.437705,38.5869426 C151.812237,36.9967977 152,35.3856377 152,33.7544632 Z M156.527341,46.8538275 C156.527341,48.1372932 156.53626,49.5711018 156.556078,51.1552536 C156.575895,52.7394054 156.605622,54.314476 156.645258,55.8784475 C156.683903,57.4424189 156.733448,58.9357595 156.792902,60.360487 C156.851365,61.7831966 156.920728,62.9970402 157,64 C155.896139,63.7981972 155.010276,63.6993139 154.34142,63.6993139 C153.670581,63.6993139 152.784718,63.7981972 151.681848,64 C151.76112,62.9970402 151.830483,61.7831966 151.888946,60.360487 C151.9484,58.9357595 151.996954,57.4424189 152.03659,55.8784475 C152.076226,54.314476 152.104962,52.7394054 152.125771,51.1552536 C152.144598,49.5711018 152.155498,48.1372932 152.155498,46.8538275 L152.155498,42.3425266 L152.03659,42.3425266 C150.894084,44.627943 149.487008,46.2726355 147.81239,47.2745863 C146.138762,48.2775461 144.335327,48.780035 142.407039,48.780035 C140.948437,48.780035 139.481907,48.5479618 138.005468,48.0878515 C136.528039,47.6267321 135.199244,46.8235571 134.017102,45.6803444 C132.835951,44.5381407 131.869825,43.0246199 131.121697,41.138773 C130.37456,39.2539352 130,36.9281582 130,34.1604332 C130,31.5127808 130.37456,29.2374546 131.121697,27.3324364 C131.869825,25.4274183 132.835951,23.8634468 134.017102,22.639513 C135.199244,21.4165882 136.528039,20.5034306 138.005468,19.9020584 C139.481907,19.3006861 140.948437,19 142.407039,19 C145.084447,19 147.192087,19.6225615 148.72798,20.8646576 C150.264863,22.1087717 151.366743,23.6525629 152.03659,25.4970402 L152.155498,25.4970402 C152.155498,24.534441 152.115862,23.5718418 152.03659,22.6092426 C151.957318,21.6476524 151.839401,20.6446926 151.681848,19.6013723 C152.784718,19.802166 153.670581,19.9020584 154.34142,19.9020584 C155.010276,19.9020584 155.896139,19.802166 157,19.6013723 C156.920728,20.6446926 156.851365,21.8877977 156.792902,23.3316965 C156.733448,24.7755953 156.683903,26.2901251 156.645258,27.8732679 C156.605622,29.4584286 156.575895,31.0526705 156.556078,32.6559935 C156.53626,34.2613346 156.527341,35.745594 156.527341,37.1077627 L156.527341,46.8538275 Z" id="Fill-7" fill="#808184"></path>
                <path d="M43.5234345,44.5666667 C42.3581698,45.1400285 41.0785659,45.6326211 39.6866114,46.0444444 C38.2916741,46.4562678 36.7734495,46.6626781 35.1289546,46.6626781 C32.4335342,46.6626781 29.9319931,46.2279202 27.6253256,45.3564103 C25.3186582,44.4868946 23.3082782,43.1467236 21.5951799,41.3368946 C19.8830758,39.5280627 18.5467995,37.2376068 17.5873451,34.4635328 C16.6964943,31.8878917 16.2371493,28.8475783 16.1735171,25.3804843 L31.6291833,25.3804843 L31.6291833,24.4730769 L16.1526378,24.4730769 C16.1645688,20.7277778 16.6398218,17.4810541 17.5873451,14.7408832 C18.5467995,11.9688034 19.8830758,9.67934473 21.5951799,7.86851852 C23.3082782,6.05968661 25.3186582,4.71851852 27.6253256,3.8480057 C29.9319931,2.97849003 32.4335342,2.54273504 35.1289546,2.54273504 C36.7734495,2.54273504 38.2827258,2.76111111 39.6518125,3.19586895 C41.0218935,3.63162393 42.2557617,4.16908832 43.352423,4.81025641 C44.44809,5.45242165 45.4075444,6.11652422 46.2307861,6.80356125 C47.0520392,7.49059829 47.6903498,8.10883191 48.1487005,8.65925926 L48.5603213,8.52165242 C48.696534,7.78974359 48.8794766,6.87236467 49.1081549,5.77250712 C49.3358389,4.67264957 49.6331206,3.8031339 50,3.16096866 C48.0810913,2.29145299 45.8748434,1.54558405 43.3852334,0.927350427 C40.8966176,0.309116809 38.1445246,1.42106379e-14 35.1289546,1.42106379e-14 C31.3358786,1.42106379e-14 27.8659349,0.549430199 24.7141522,1.64928775 C21.5623695,2.74814815 18.8560122,4.3525641 16.5930919,6.45954416 C14.3331544,8.56752137 12.5733262,11.1451567 11.3175844,14.1904558 C10.0747678,17.2038462 9.44938257,20.6320513 9.43546302,24.4730769 L-1.49214083e-13,24.4730769 L-1.49214083e-13,25.3804843 L9.44938257,25.3804843 C9.52792857,28.9582621 10.1453598,32.1730769 11.3175844,35.0139601 C12.5733262,38.0612536 14.3092923,40.6388889 16.5254827,42.7448718 C18.7406789,44.852849 21.3784327,46.4223647 24.4407326,47.4534188 C27.4990555,48.4834758 30.834775,49 34.4429199,49 C36.1321561,49 37.7557716,48.861396 39.3097894,48.5871795 C40.8608244,48.3119658 42.2666985,48.002849 43.5234345,47.6588319 C44.7801706,47.315812 45.8539641,46.9269231 46.7428265,46.4911681 C47.6346716,46.0554131 48.2849132,45.6555556 48.696534,45.288604 L49.3139653,41.234188 L49.0405456,40.9589744 C48.3992523,41.4635328 47.6108095,42.0478632 46.6752172,42.7109687 C45.739625,43.3760684 44.6886993,43.994302 43.5234345,44.5666667 Z" id="Fill-10" fill="#808184"></path>
                <path d="M32.4995149,30 C35.5378781,30 38,27.5371252 38,24.50097 C38,21.4628748 35.5378781,19 32.4995149,19 C29.4611518,19 27,21.4628748 27,24.50097 C27,27.5371252 29.4611518,30 32.4995149,30" id="Fill-12" fill="#008B99"></path>
            </g>
        </g>
    </g>
</svg>