<svg xmlns="http://www.w3.org/2000/svg" xmlns:xlink="http://www.w3.org/1999/xlink" viewBox="0,0,256,256" width="64px" height="64px"><g fill="none" fill-rule="nonzero" stroke="none" stroke-width="1" stroke-linecap="butt" stroke-linejoin="miter" stroke-miterlimit="10" stroke-dasharray="" stroke-dashoffset="0" font-family="none" font-weight="none" font-size="none" text-anchor="none" style="mix-blend-mode: normal"><g transform="scale(0.5,0.5)"><path d="M7.9,256c0,-137 111.1,-248.1 248.1,-248.1c137,0 248.1,111.1 248.1,248.1c0,137 -111.1,248.1 -248.1,248.1c-137,0 -248.1,-111.1 -248.1,-248.1z" fill="#008b99"></path><path d="M154.4,203.1c-29.71292,0 -53.8,24.08708 -53.8,53.8c0,29.71292 24.08708,53.8 53.8,53.8c29.71292,0 53.8,-24.08708 53.8,-53.8c0,-29.71292 -24.08708,-53.8 -53.8,-53.8zM318.7,107.4c-29.71292,0 -53.8,24.08708 -53.8,53.8c0,29.71292 24.08708,53.8 53.8,53.8c29.71292,0 53.8,-24.08708 53.8,-53.8c0,-29.71292 -24.08708,-53.8 -53.8,-53.8zM318.7,297c-29.71292,0 -53.8,24.08708 -53.8,53.8c0,29.71292 24.08708,53.8 53.8,53.8c29.71292,0 53.8,-24.08708 53.8,-53.8c0,-29.71292 -24.08708,-53.8 -53.8,-53.8z" fill="#ffffff"></path><g fill="#ffffff"><path transform="translate(296.62616,-101.45057) rotate(59.786)" d="M222.1,112.2h28.9v190.1h-28.9z"></path></g><g fill="#ffffff"><path transform="translate(184.59982,-77.89517) rotate(30.214)" d="M141.5,288.5h190.1v28.9h-190.1z"></path></g></g></g></svg>